<svg xmlns="http://www.w3.org/2000/svg" xmlns:xlink="http://www.w3.org/1999/xlink" version="1.1" width="256" height="256" viewBox="0 0 256 256" xml:space="preserve">

<defs>
</defs>
<g style="stroke: none; stroke-width: 0; stroke-dasharray: none; stroke-linecap: butt; stroke-linejoin: miter; stroke-miterlimit: 10; fill: none; fill-rule: nonzero; opacity: 1;" transform="translate(1.4065934065934016 1.4065934065934016) scale(2.81 2.81)" >
	<path d="M 78.236 69.147 V 1.982 C 78.236 0.888 77.349 0 76.254 0 H 23.33 c -6.387 0 -11.565 5.178 -11.565 11.565 v 67.008 h 2 v 0 l 0.003 0 h 1.997 v -0.301 l 60.471 -9.124 H 78.236 z" style="stroke: none; stroke-width: 1; stroke-dasharray: none; stroke-linecap: butt; stroke-linejoin: miter; stroke-miterlimit: 10; fill: rgb(118,61,178); fill-rule: nonzero; opacity: 1;" transform=" matrix(1 0 0 1 0 0) " stroke-linecap="round" />
	<path d="M 78.236 69.147 V 88 h -3.628 H 23.19 c -5.206 0 -9.426 -4.22 -9.426 -9.426 v 0 c 0 -5.206 4.22 -9.426 9.426 -9.426 h 40.848 H 78.236 z" style="stroke: none; stroke-width: 1; stroke-dasharray: none; stroke-linecap: butt; stroke-linejoin: miter; stroke-miterlimit: 10; fill: rgb(241,235,213); fill-rule: nonzero; opacity: 1;" transform=" matrix(1 0 0 1 0 0) " stroke-linecap="round" />
	<path d="M 78.236 90 H 23.19 c -6.3 0 -11.426 -5.126 -11.426 -11.427 c 0 -6.3 5.126 -11.426 11.426 -11.426 h 55.046 v 4 H 23.19 c -4.095 0 -7.426 3.331 -7.426 7.426 S 19.096 86 23.19 86 h 55.046 V 90 z" style="stroke: none; stroke-width: 1; stroke-dasharray: none; stroke-linecap: butt; stroke-linejoin: miter; stroke-miterlimit: 10; fill: rgb(86,47,132); fill-rule: nonzero; opacity: 1;" transform=" matrix(1 0 0 1 0 0) " stroke-linecap="round" />
	<path d="M 65.202 33.138 H 24.798 c -1.065 0 -1.929 -0.864 -1.929 -1.929 V 15.576 c 0 -1.065 0.864 -1.929 1.929 -1.929 h 40.404 c 1.065 0 1.929 0.864 1.929 1.929 V 31.21 C 67.131 32.275 66.267 33.138 65.202 33.138 z" style="stroke: none; stroke-width: 1; stroke-dasharray: none; stroke-linecap: butt; stroke-linejoin: miter; stroke-miterlimit: 10; fill: rgb(86,47,132); fill-rule: nonzero; opacity: 1;" transform=" matrix(1 0 0 1 0 0) " stroke-linecap="round" />
	<path d="M 65.131 43.049 H 24.869 c -1.104 0 -2 -0.896 -2 -2 s 0.896 -2 2 -2 h 40.262 c 1.104 0 2 0.896 2 2 S 66.235 43.049 65.131 43.049 z" style="stroke: none; stroke-width: 1; stroke-dasharray: none; stroke-linecap: butt; stroke-linejoin: miter; stroke-miterlimit: 10; fill: rgb(86,47,132); fill-rule: nonzero; opacity: 1;" transform=" matrix(1 0 0 1 0 0) " stroke-linecap="round" />
	<path d="M 65.131 52.049 H 24.869 c -1.104 0 -2 -0.896 -2 -2 s 0.896 -2 2 -2 h 40.262 c 1.104 0 2 0.896 2 2 S 66.235 52.049 65.131 52.049 z" style="stroke: none; stroke-width: 1; stroke-dasharray: none; stroke-linecap: butt; stroke-linejoin: miter; stroke-miterlimit: 10; fill: rgb(86,47,132); fill-rule: nonzero; opacity: 1;" transform=" matrix(1 0 0 1 0 0) " stroke-linecap="round" />
</g>
</svg>