<svg width="12" height="12" viewBox="0 0 12 12" fill="none" xmlns="http://www.w3.org/2000/svg">
<path id="Vector" d="M11.705 10.4677C12.0563 10.8182 12.0563 11.3867 11.705 11.7372C11.3536 12.0876 10.7835 12.0876 10.4321 11.7372L6.00061 7.28477L1.53765 11.7357C1.18628 12.0861 0.616179 12.0861 0.264768 11.7357C-0.0866433 11.3852 -0.0866058 10.8167 0.264768 10.4662L4.72923 6.01683L0.26353 1.53227C-0.0878435 1.18185 -0.0878435 0.613293 0.26353 0.262832C0.614904 -0.0876293 1.185 -0.087592 1.53641 0.262832L6.00061 4.74889L10.4636 0.29799C10.8149 -0.0524338 11.385 -0.0524338 11.7365 0.29799C12.0879 0.648414 12.0878 1.21697 11.7365 1.56743L7.27199 6.01683L11.705 10.4677Z" fill="#999999"/>
</svg>
